inDegrees=no
num_controls=7
num_derivatives=13
num_iterations=230
num_multipliers=7
num_parameters=0
num_slacks=7
num_states=26
objective=0.448461
objective_accelerations=0.049103
objective_balance=0.007398
objective_effort=0.036418
objective_height=0.350602
objective_ligament=0.004939
solver_duration=3411.190214
status=Solve_Succeeded
success=true
DataType=double
version=3
OpenSimVersion=4.5
endheader
time	/jointset/ground_pelvis/pelvis_tilt/value	/jointset/ground_pelvis/pelvis_tx/value	/jointset/ground_pelvis/pelvis_ty/value	/jointset/hip_l/hip_flexion_l/value	/jointset/hip_l/hip_adduction_l/value	/jointset/hip_l/hip_rotation_l/value	/jointset/back/lumbar_extension/value	/jointset/patellofemoral_l/patellar_flexion_l/value	/jointset/knee_l/knee_flexion_l/value	/jointset/knee_l/knee_adduction_l/value	/jointset/knee_l/knee_rotation_l/value	/jointset/ankle_l/ankle_angle_l/value	/jointset/subtalar_l/subtalar_angle_l/value	/jointset/ground_pelvis/pelvis_tilt/speed	/jointset/ground_pelvis/pelvis_tx/speed	/jointset/ground_pelvis/pelvis_ty/speed	/jointset/hip_l/hip_flexion_l/speed	/jointset/hip_l/hip_adduction_l/speed	/jointset/hip_l/hip_rotation_l/speed	/jointset/back/lumbar_extension/speed	/jointset/patellofemoral_l/patellar_flexion_l/speed	/jointset/knee_l/knee_flexion_l/speed	/jointset/knee_l/knee_adduction_l/speed	/jointset/knee_l/knee_rotation_l/speed	/jointset/ankle_l/ankle_angle_l/speed	/jointset/subtalar_l/subtalar_angle_l/speed	/forceset/tau_hip_flexion_l	/forceset/tau_hip_adduction_l	/forceset/tau_hip_rotation_l	/forceset/tau_knee_flexion_l	/forceset/tau_ankle_angle_l	/forceset/tau_subtalar_angle_l	/forceset/tau_lumbar_extension	lambda_cid13_p0	lambda_cid13_p1	lambda_cid13_p2	lambda_cid13_p3	lambda_cid13_p4	lambda_cid13_p5	lambda_cid14_p0	/jointset/ground_pelvis/pelvis_tilt/accel	/jointset/ground_pelvis/pelvis_tx/accel	/jointset/ground_pelvis/pelvis_ty/accel	/jointset/hip_l/hip_flexion_l/accel	/jointset/hip_l/hip_adduction_l/accel	/jointset/hip_l/hip_rotation_l/accel	/jointset/back/lumbar_extension/accel	/jointset/patellofemoral_l/patellar_flexion_l/accel	/jointset/knee_l/knee_flexion_l/accel	/jointset/knee_l/knee_adduction_l/accel	/jointset/knee_l/knee_rotation_l/accel	/jointset/ankle_l/ankle_angle_l/accel	/jointset/subtalar_l/subtalar_angle_l/accel	gamma_cid13_p0	gamma_cid13_p1	gamma_cid13_p2	gamma_cid13_p3	gamma_cid13_p4	gamma_cid13_p5	gamma_cid14_p0
0.5	-0.4431493971792904	-0.07312670162067253	0.7649794789395619	1.255494578186703	-0.3097423504642368	-0.0485200912510856	-0.3297259133077388	0.6822740931128101	0.6822740931143509	-0.1733341496985224	0.1743891875028173	0.03556716367923642	-0.04928344957930823	-0.7347902717268279	-0.2694984511041907	-0.4902132829587112	2.355216178876677	-0.03519407206208972	0.6124087130923475	-0.6219585825836113	1.760844605691579	1.760844605691593	-0.005697641866676175	0.002133252630229341	0.2335113372784482	-0.009893536203781984	-0.243673210722519	0.0273781003343158	-0.02143439648912123	-0.2030000294059185	0.1439094406400233	0.03278986972498064	0.2196246292123904	7.118884582437794	-18.25904799769534	5.674797671488592	-5.190763910968673	-607.8673425480764	-51.0037158376458	-28.68942714128996	0.6115149601053403	0.6916401690011724	-0.3124299235739364	-1.510282763898567	0.5942473736094623	-0.2822707097429943	1.775480343016225	-1.088624055261999	-1.088624055262028	0.02980317621121235	-0.03817436239841207	-0.1259387341890266	0.5741504734596695	-2.529773560736434e-07	-8.130360273500932e-07	1.26623366369181e-06	5.34908908053209e-08	-3.434113388506538e-07	2.412156308432524e-08	-2.939676263265706e-07
0.51	-0.4504651511371286	-0.07578681249604248	0.7600627507061857	1.278967089721842	-0.3100660509594373	-0.04241029168219771	-0.3358567890372279	0.6998252909674502	0.6998252909684647	-0.1733925283537962	0.1744091207733397	0.03789499905913082	-0.04935528956511968	-0.7282675090894662	-0.2625027285259326	-0.4930333041447261	2.338986014343173	-0.02955519833032837	0.6094450865442124	-0.6041541987193586	1.749165922198484	1.749165922198519	-0.005950578365602613	0.001876662746088067	0.2320081740472581	-0.004484558880402196	-0.2517175501379911	0.02797240741031465	-0.02154588851062155	-0.2042703118528478	0.1437482087555524	0.03337577670346606	0.2258453899739636	6.829527837182797	-18.3491399656791	5.559284039348828	-5.132405688904558	-612.2952825549395	-50.6307134280981	-27.67256324481868	0.6865696301175355	0.7067104040371822	-0.2520051512566982	-1.724447929644861	0.5472132882153204	-0.3196192282151162	1.792272097355859	-1.241782053291294	-1.241782053288072	-0.04875859675496021	-0.01624771230056815	-0.1696402967599314	0.5226845024408354	-3.095914389587536e-07	-6.440442555939471e-07	1.537727409015453e-06	1.179654558526904e-07	-3.696247084146714e-07	7.87289952896263e-08	-3.180491961084605e-07
0.52	-0.4577128949256793	-0.07837633172527006	0.7551207788739209	1.302268286685331	-0.3103336615342672	-0.03633337049896847	-0.3418077499902296	0.7172528436757717	0.7172528436762542	-0.1734526196808324	0.1744271188628309	0.0402063757708782	-0.04937335714956465	-0.721188237869468	-0.255380121875719	-0.4952620027364011	2.320953264546926	-0.02397608798833217	0.6058330359614248	-0.5859756272860632	1.736115576427069	1.736115576427126	-0.006040176216943526	0.001746216426804623	0.2302196036490312	0.00086094406952565	-0.2597618895534758	0.02856671448630653	-0.02165738053221419	-0.2055405942997663	0.143586976871081	0.03396168368194416	0.2320661507355258	6.535713206547863	-18.44228693272995	5.448639362169946	-5.089464366552073	-616.8094934457473	-50.33639087592973	-26.6505937778377	0.7228166766326707	0.7170169833922463	-0.1941654047059646	-1.870799816447371	0.582294695656428	-0.4119555166734968	1.850317856824733	-1.362956510925975	-1.362956510925862	0.0624709057283187	-0.01294564942684064	-0.1830201675963641	0.5614555987692832	-3.021981952196516e-07	-5.606998847276881e-07	1.510141506155577e-06	1.261267998881814e-07	-3.499663822142479e-07	1.11267668121158e-07	-3.050280876030372e-07
0.53	-0.4648871960551781	-0.08089406145319081	0.7501595003517185	1.325380368597447	-0.3105457594136215	-0.03029506516200285	-0.3475751228770081	0.7345430480702121	0.7345430480708102	-0.1735130355216881	0.1744438139962282	0.04249848754592884	-0.04933826426943219	-0.7135838592813181	-0.2481507421183383	-0.4968913305897965	2.301168487883122	-0.01846242175255678	0.6017797948168903	-0.5674512602501699	1.721692434363402	1.72169243436343	-0.006057432755630249	0.001571118093856551	0.2281556177841039	0.006137333801152819	-0.2676386068055375	0.02895350851960049	-0.0217409467796717	-0.2069590368859357	0.1435583227079585	0.0343547670563422	0.238112597553989	6.278515740668456	-18.45985224454598	5.327943293602753	-5.019496292096108	-621.3095481250591	-49.94052975397134	-25.62889553176463	0.792431408081681	0.7281867931520944	-0.1320287366708193	-2.076555408311789	0.5329279385482183	-0.4095076293457477	1.860649599890723	-1.516863631001496	-1.516863631005932	-0.0360122161503938	-0.02336445643859745	-0.2251554206479912	0.5075936371565456	-2.790953986114259e-07	-5.076322682013266e-07	1.411166963229942e-06	1.175451288334507e-07	-3.192152516459931e-07	1.319165942009446e-07	-2.841608159905398e-07
0.54	-0.4719828168071596	-0.08333903971928955	0.7451849860987794	1.34828575497953	-0.3107033155604145	-0.02429879207968668	-0.3531558213988441	0.7516820469286338	0.7516820469293469	-0.1735740615844315	0.174458043640047	0.04476854593738886	-0.04925103489662409	-0.7054521623661482	-0.2408298295113198	-0.4979091488837729	2.279614158540717	-0.0130677414763756	0.5974265850322639	-0.5486407542975129	1.705874469223157	1.705874469223156	-0.006162220593645375	0.001253118512516509	0.2258089269308934	0.01128824260466447	-0.275515324057612	0.0293403025528882	-0.02182451302716226	-0.2083774794721015	0.1435296685448358	0.03474785043073374	0.2441590443724403	6.017022268737005	-18.48026816954468	5.211817773928018	-4.966739315296025	-625.8946438474169	-49.61840963153711	-24.60795594127094	0.8282803420366789	0.7353235533197904	-0.07186349282216553	-2.224710352167747	0.5584975037375848	-0.4719492446918794	1.907545640177464	-1.641921126241612	-1.641921126241585	0.04496464586263875	-0.04152589910523044	-0.2395611652529967	0.5363594131461804	-2.386118201054459e-07	-4.880623373276179e-07	1.233209244061337e-06	9.043927087038952e-08	-2.761912311388609e-07	1.394109068532682e-07	-2.546126830680877e-07
